<svg width="37" height="37" viewBox="0 0 37 37" fill="none" xmlns="http://www.w3.org/2000/svg">
<rect width="37" height="37" rx="8" fill="#DD2590" fill-opacity="0.1"/>
<path d="M10.375 13C10.375 12.4696 10.5857 11.9609 10.9608 11.5858C11.3359 11.2107 11.8446 11 12.375 11H24.375C24.9054 11 25.4141 11.2107 25.7892 11.5858C26.1643 11.9609 26.375 12.4696 26.375 13V15C26.375 15.5304 26.1643 16.0391 25.7892 16.4142C25.4141 16.7893 24.9054 17 24.375 17H12.375C11.8446 17 11.3359 16.7893 10.9608 16.4142C10.5857 16.0391 10.375 15.5304 10.375 15V13Z" stroke="#DD2590" stroke-linecap="round" stroke-linejoin="round"/>
<path d="M10.375 23C10.375 22.4696 10.5857 21.9609 10.9608 21.5858C11.3359 21.2107 11.8446 21 12.375 21H24.375C24.9054 21 25.4141 21.2107 25.7892 21.5858C26.1643 21.9609 26.375 22.4696 26.375 23V25C26.375 25.5304 26.1643 26.0391 25.7892 26.4142C25.4141 26.7893 24.9054 27 24.375 27H12.375C11.8446 27 11.3359 26.7893 10.9608 26.4142C10.5857 26.0391 10.375 25.5304 10.375 25V23Z" stroke="#DD2590" stroke-linecap="round" stroke-linejoin="round"/>
</svg>
